<svg width="472" height="474" viewBox="0 0 472 474" fill="none" xmlns="http://www.w3.org/2000/svg">
<path d="M131.21 217.767C147.045 310.207 -80.4647 219.524 32.4406 378.928C36.4176 391.401 69.3637 408.843 108.347 389.596C157.713 376.372 200.441 304.85 211.945 404.137C206.528 570.232 422.28 390.157 356.994 345.857C291.707 301.558 290.774 274.369 296.26 268.881C301.747 263.394 305.698 251.719 368.865 287.057C436.344 324.807 478.031 298.292 470.721 220.102C467.812 188.987 426.024 158.514 398.975 162.682C372.809 166.714 313.568 228.013 291.447 185.593C278.396 160.564 311.333 154.782 337.802 108.921C364.271 63.0601 389.092 61.484 306.19 13.6043C223.287 -34.2753 215.866 64.381 229.542 115.405C243.218 166.428 198.363 161.925 170.465 125.068C159.285 110.298 85.985 25.5839 51.7422 92.2669C-51.1428 292.621 97.415 168.001 131.21 217.767Z" fill="black"/>
</svg>
