<svg width="24" height="24" viewBox="0 0 24 24" fill="none" xmlns="http://www.w3.org/2000/svg">
<path d="M7.10065 0.333313H16.9007C20.634 0.333313 23.6673 3.36665 23.6673 7.09998V16.9C23.6673 18.6946 22.9544 20.4157 21.6854 21.6847C20.4164 22.9537 18.6953 23.6666 16.9007 23.6666H7.10065C3.36732 23.6666 0.333984 20.6333 0.333984 16.9V7.09998C0.333984 5.30535 1.0469 3.58422 2.3159 2.31522C3.58489 1.04623 5.30602 0.333313 7.10065 0.333313ZM6.86732 2.66665C5.75341 2.66665 4.68512 3.10915 3.89747 3.8968C3.10982 4.68445 2.66732 5.75274 2.66732 6.86665V17.1333C2.66732 19.455 4.54565 21.3333 6.86732 21.3333H17.134C18.2479 21.3333 19.3162 20.8908 20.1038 20.1032C20.8915 19.3155 21.334 18.2472 21.334 17.1333V6.86665C21.334 4.54498 19.4557 2.66665 17.134 2.66665H6.86732ZM18.1257 4.41665C18.5124 4.41665 18.8834 4.57029 19.1568 4.84378C19.4303 5.11727 19.584 5.48821 19.584 5.87498C19.584 6.26175 19.4303 6.63269 19.1568 6.90618C18.8834 7.17967 18.5124 7.33331 18.1257 7.33331C17.7389 7.33331 17.3679 7.17967 17.0945 6.90618C16.821 6.63269 16.6673 6.26175 16.6673 5.87498C16.6673 5.48821 16.821 5.11727 17.0945 4.84378C17.3679 4.57029 17.7389 4.41665 18.1257 4.41665ZM12.0007 6.16665C13.5477 6.16665 15.0315 6.78123 16.1254 7.87519C17.2194 8.96915 17.834 10.4529 17.834 12C17.834 13.5471 17.2194 15.0308 16.1254 16.1248C15.0315 17.2187 13.5477 17.8333 12.0007 17.8333C10.4536 17.8333 8.96982 17.2187 7.87586 16.1248C6.7819 15.0308 6.16732 13.5471 6.16732 12C6.16732 10.4529 6.7819 8.96915 7.87586 7.87519C8.96982 6.78123 10.4536 6.16665 12.0007 6.16665ZM12.0007 8.49998C11.0724 8.49998 10.1822 8.86873 9.52578 9.52511C8.8694 10.1815 8.50065 11.0717 8.50065 12C8.50065 12.9282 8.8694 13.8185 9.52578 14.4749C10.1822 15.1312 11.0724 15.5 12.0007 15.5C12.9289 15.5 13.8191 15.1312 14.4755 14.4749C15.1319 13.8185 15.5007 12.9282 15.5007 12C15.5007 11.0717 15.1319 10.1815 14.4755 9.52511C13.8191 8.86873 12.9289 8.49998 12.0007 8.49998Z" fill="black"/>
</svg>
